<?xml version="1.0" encoding="UTF-8"?>
<svg version="1.1" xmlns="http://www.w3.org/2000/svg" width="120" height="120">
<path d="M0 0 C0.495 0.99 0.495 0.99 1 2 C2.32 1.34 3.64 0.68 5 0 C7 1.25 7 1.25 9 3 C9 4.32 9 5.64 9 7 C9.99 7.66 10.98 8.32 12 9 C12.9375 11.375 12.9375 11.375 13 14 C11.68733482 15.35368596 10.35432675 16.68799596 9 18 C9.13641377 20.21858253 9.13641377 20.21858253 10 22 C8.35 23.32 6.7 24.64 5 26 C3.68 25.01 2.36 24.02 1 23 C0.67 24.32 0.34 25.64 0 27 C-2.31 26.67 -4.62 26.34 -7 26 C-6.505 27.98 -6.505 27.98 -6 30 C13.14 30 32.28 30 52 30 C52 59.37 52 88.74 52 119 C22.96 119 -6.08 119 -36 119 C-35.875 89.1875 -35.875 89.1875 -35.81982422 79.77807617 C-35.81398456 77.32470879 -35.80888776 74.87133948 -35.8046875 72.41796875 C-35.79445557 71.13780884 -35.78422363 69.85764893 -35.77368164 68.53869629 C-35.77343994 67.32089478 -35.77319824 66.10309326 -35.77294922 64.84838867 C-35.768508 63.78915695 -35.76406677 62.72992523 -35.75949097 61.63859558 C-35.80959892 58.76897998 -35.80959892 58.76897998 -38 56 C-38 55.01 -38 54.02 -38 53 C-38.9075 53.309375 -39.815 53.61875 -40.75 53.9375 C-41.8225 54.288125 -42.895 54.63875 -44 55 C-44.66 55.309375 -45.32 55.61875 -46 55.9375 C-48.93497924 56.0292181 -50.66916904 54.64015912 -52.8046875 52.74609375 C-55.04483718 49.47371824 -54.44592195 45.79033656 -54 42 C-56.31 41.34 -58.62 40.68 -61 40 C-61.33 36.7 -61.66 33.4 -62 30 C-59 28 -59 28 -56 28 C-55.83312552 25.58354218 -55.83312552 25.58354218 -56 23 C-56.66 22.34 -57.32 21.68 -58 21 C-57.72317437 16.75534029 -56.81645906 14.18382329 -54 11 C-51.98177083 11.29296875 -49.96354167 11.5859375 -47.9453125 11.87890625 C-45.91859333 12.1684297 -45.91859333 12.1684297 -44 11 C-43.26924352 8.6859378 -42.59861742 6.35171131 -42 4 C-37.545 3.505 -37.545 3.505 -33 3 C-32.5875 3.969375 -32.175 4.93875 -31.75 5.9375 C-30.33189148 9.05191599 -30.33189148 9.05191599 -28 10.0625 C-25.31672952 9.9786478 -24.8119058 8.88740188 -23 7 C-19 7 -19 7 -17.25 8.5 C-16.8375 8.995 -16.425 9.49 -16 10 C-15.4121875 8.7625 -15.4121875 8.7625 -14.8125 7.5 C-14.214375 6.675 -13.61625 5.85 -13 5 C-10.3125 4.6875 -10.3125 4.6875 -8 5 C-7.814375 3.7934375 -7.814375 3.7934375 -7.625 2.5625 C-7.41875 1.716875 -7.2125 0.87125 -7 0 C-4.30234372 -1.34882814 -2.84835666 -0.80338265 0 0 Z M-5 3 C-5.66 4.65 -6.32 6.3 -7 8 C-8.32 8 -9.64 8 -11 8 C-10.62875 9.093125 -10.2575 10.18625 -9.875 11.3125 C-9.58625 12.529375 -9.2975 13.74625 -9 15 C-9.66 15.99 -10.32 16.98 -11 18 C-10.071875 18.2475 -9.14375 18.495 -8.1875 18.75 C-4.83541675 20.06454245 -3.8122197 20.97963384 -2 24 C-1.34 23.01 -0.68 22.02 0 21 C1.98 21.33 3.96 21.66 6 22 C6 21.01 6 20.02 6 19 C6.51399757 15.71041554 7.49263491 14.18031747 10 12 C8.68 11.67 7.36 11.34 6 11 C5.67 8.69 5.34 6.38 5 4 C3.9171875 4.309375 3.9171875 4.309375 2.8125 4.625 C-0.44641585 5.05952211 -2.08304504 4.41680669 -5 3 Z M-38 8 C-38.4125 8.928125 -38.825 9.85625 -39.25 10.8125 C-41.82352941 15.5 -41.82352941 15.5 -45 17 C-48.75 16.6875 -48.75 16.6875 -52 16 C-52.71260075 17.75759218 -52.71260075 17.75759218 -53 20 C-52.62875 20.78375 -52.2575 21.5675 -51.875 22.375 C-51 25 -51 25 -52.1875 28.1875 C-54 31 -54 31 -57 33 C-57 33.99 -57 34.98 -57 36 C-56.05125 36.4125 -55.1025 36.825 -54.125 37.25 C-51 39 -51 39 -49.5625 40.8125 C-48.80381806 43.76292976 -49.33207746 46.0611408 -50 49 C-47.3574263 49.91473705 -45.86797019 49.97752684 -43.0625 49.5 C-39.91585836 48.98626259 -37.9925542 48.91935543 -35 50 C-33.6875 52.0625 -33.6875 52.0625 -33 54 C-32.01 54 -31.02 54 -30 54 C-29.5875 53.05125 -29.175 52.1025 -28.75 51.125 C-27 48 -27 48 -25.25 46.625 C-22.1324378 45.7590105 -19.21579473 45.87631559 -16 46 C-15.83441643 42.22638378 -15.83441643 42.22638378 -16.625 39.5625 C-17.09419276 36.35634949 -16.59116971 34.80348949 -15 32 C-12.875 30.6875 -12.875 30.6875 -11 30 C-11 29.01 -11 28.02 -11 27 C-11.928125 26.773125 -12.85625 26.54625 -13.8125 26.3125 C-17 25 -17 25 -18.9375 22.75 C-20.23052342 19.40335115 -19.87794657 17.43197297 -19 14 C-19.99 13.34 -20.98 12.68 -22 12 C-22.66 12.66 -23.32 13.32 -24 14 C-26.1640625 13.9765625 -26.1640625 13.9765625 -28.625 13.625 C-29.44226563 13.51414062 -30.25953125 13.40328125 -31.1015625 13.2890625 C-32.04128906 13.14597656 -32.04128906 13.14597656 -33 13 C-33.66 11.35 -34.32 9.7 -35 8 C-35.99 8 -36.98 8 -38 8 Z M-15 11 C-15.20625 12.258125 -15.4125 13.51625 -15.625 14.8125 C-15.74101563 15.52019531 -15.85703125 16.22789063 -15.9765625 16.95703125 C-16.19577848 19.31755824 -16.19577848 19.31755824 -14 22 C-13.34 21.67 -12.68 21.34 -12 21 C-12.66 19.02 -13.32 17.04 -14 15 C-13.01 14.67 -12.02 14.34 -11 14 C-12.32 13.01 -13.64 12.02 -15 11 Z M-9 22 C-8.34 22.66 -7.68 23.32 -7 24 C-7 23.34 -7 22.68 -7 22 C-7.66 22 -8.32 22 -9 22 Z M-12 35 C-12.38218767 36.65614657 -12.71395102 38.32457024 -13 40 C-12.67 40.33 -12.34 40.66 -12 41 C-11.7367754 44.94836905 -11.91002627 47.60379269 -14 51 C-16.76276177 50.47731534 -19.3260876 49.89130413 -22 49 C-22.99 49.66 -23.98 50.32 -25 51 C-25.144375 51.99 -25.28875 52.98 -25.4375 54 C-25.7159375 55.485 -25.7159375 55.485 -26 57 C-27.98 57.99 -27.98 57.99 -30 59 C-29.67 76.16 -29.34 93.32 -29 111 C-4.58 111 19.84 111 45 111 C44.67 86.91 44.34 62.82 44 38 C25.85 38 7.7 38 -11 38 C-10.67 37.01 -10.34 36.02 -10 35 C-10.66 35 -11.32 35 -12 35 Z " fill="#F5E700" transform="translate(65,1)"/>
<path d="M0 0 C4.69715812 5.95337482 7.66587592 12.83110488 10.1875 19.9375 C11.14821653 22.37624196 12.30519832 24.66729195 13.5 27 C15.362274 30.64091293 16.93668687 34.25629002 18.30859375 38.10546875 C19.41120506 41.12674833 20.71115561 44.05406997 22 47 C18.7 47 15.4 47 12 47 C11.01 43.7 10.02 40.4 9 37 C3.06 37 -2.88 37 -9 37 C-9.474375 38.464375 -9.94875 39.92875 -10.4375 41.4375 C-11.875 45.875 -11.875 45.875 -13 47 C-14.51928038 47.07179964 -16.04167482 47.08392007 -17.5625 47.0625 C-18.38878906 47.05347656 -19.21507812 47.04445312 -20.06640625 47.03515625 C-20.70449219 47.02355469 -21.34257813 47.01195312 -22 47 C-19.14355805 39.40522494 -15.70236587 32.2151227 -12 25 C-10.08534964 21.24113793 -8.21618572 17.50756647 -6.5625 13.625 C-4.56267315 8.98540171 -2.29132681 4.50114396 0 0 Z M0 18 C-0.6509259 19.24735567 -1.29551669 20.49801832 -1.9375 21.75 C-2.47697266 22.79414062 -2.47697266 22.79414062 -3.02734375 23.859375 C-4.18922956 26.24545543 -4.18922956 26.24545543 -5 30 C-1.7 30 1.6 30 5 30 C4.54625 28.576875 4.0925 27.15375 3.625 25.6875 C3.36976562 24.88699219 3.11453125 24.08648437 2.8515625 23.26171875 C2.01168189 20.77275472 2.01168189 20.77275472 0 18 Z " fill="#F3E600" transform="translate(73,50)"/>
<path d="M0 0 C3.54004983 2.11881435 7.01242718 4.21588439 8.80859375 8.01953125 C10.11086221 13.68108822 10.24572426 18.6375347 7.80859375 24.01953125 C4.73751078 27.28993931 1.26257055 30.79002263 -3.36328125 31.22265625 C-8.73950087 31.3204057 -12.61850138 31.17701319 -17.19140625 28.01953125 C-21.76248226 23.20137005 -22.51650837 19.63396936 -22.40625 13.04296875 C-21.93076715 8.56478478 -19.99342144 5.75985296 -16.75390625 2.76953125 C-15.90828125 2.19203125 -15.06265625 1.61453125 -14.19140625 1.01953125 C-13.59328125 0.60703125 -12.99515625 0.19453125 -12.37890625 -0.23046875 C-8.05190789 -1.71401104 -4.15546757 -1.85921989 0 0 Z M-16.19140625 7.01953125 C-19.17152356 11.48970721 -19.16870821 15.7898467 -18.19140625 21.01953125 C-15.63544235 24.82769649 -12.44531412 26.57543888 -8.19140625 28.08203125 C-3.08936908 27.97573881 0.43398729 26.21790611 4.24609375 22.89453125 C6.44066915 18.85651252 6.85079995 15.51021386 5.80859375 11.01953125 C3.75262965 7.64724867 1.36973119 4.80009997 -2.19140625 3.01953125 C-8.29605739 2.51081032 -11.31093451 2.95247147 -16.19140625 7.01953125 Z " fill="#F3E600" transform="translate(37.19140625,16.98046875)"/>
<path d="M0 0 C2.9375 0.75 2.9375 0.75 4.9375 2.75 C5.3125 5.6875 5.3125 5.6875 4.9375 8.75 C3.3125 10.6875 3.3125 10.6875 0.9375 11.75 C-2.73543796 11.52962372 -4.43216546 11.38033454 -7.0625 8.75 C-6.875 5.25 -6.875 5.25 -6.0625 1.75 C-3.0625 -0.25 -3.0625 -0.25 0 0 Z M-2.0625 2.75 C-2.3925 4.4 -2.7225 6.05 -3.0625 7.75 C-1.7425 7.75 -0.4225 7.75 0.9375 7.75 C0.9375 6.43 0.9375 5.11 0.9375 3.75 C-0.0525 3.42 -1.0425 3.09 -2.0625 2.75 Z " fill="#F4EA00" transform="translate(65.0625,8.25)"/>
<path d="M0 0 C0.58007812 0.16757812 1.16015625 0.33515625 1.7578125 0.5078125 C6.8492308 1.835278 10.03561901 2.29125276 15 0 C15 1.32 15 2.64 15 4 C11.30628421 6.46247719 8.28710603 6.56931388 4 6 C1.5 4.6875 1.5 4.6875 0 3 C0 2.01 0 1.02 0 0 Z " fill="#F5EA00" transform="translate(23,33)"/>
<path d="M0 0 C1.65 0 3.3 0 5 0 C5.66 1.32 6.32 2.64 7 4 C6.01 4.33 5.02 4.66 4 5 C4 4.34 4 3.68 4 3 C3.01 3 2.02 3 1 3 C1 3.66 1 4.32 1 5 C0.01 4.67 -0.98 4.34 -2 4 C-1.34 2.68 -0.68 1.36 0 0 Z " fill="#F0E400" transform="translate(23,26)"/>
<path d="M0 0 C1.67542976 0.28604898 3.34385343 0.61781233 5 1 C5.33 2.32 5.66 3.64 6 5 C3.525 4.01 3.525 4.01 1 3 C1 3.66 1 4.32 1 5 C0.01 5 -0.98 5 -2 5 C-1.125 1.125 -1.125 1.125 0 0 Z " fill="#F4E800" transform="translate(34,26)"/>
<path d="M0 0 C-3.18762365 2.12508244 -5.26512223 2.5020163 -9 3 C-8.67 2.01 -8.34 1.02 -8 0 C-5.13822943 -1.43088528 -3.06624227 -0.59991697 0 0 Z " fill="#F3C900" transform="translate(68,9)"/>
<path d="" fill="#000000" transform="translate(0,0)"/>
<path d="" fill="#FFFF00" transform="translate(0,0)"/>
<path d="" fill="#FFFF00" transform="translate(0,0)"/>
<path d="" fill="#FFFF00" transform="translate(0,0)"/>
<path d="" fill="#FFFF00" transform="translate(0,0)"/>
<path d="" fill="#FFFF00" transform="translate(0,0)"/>
<path d="" fill="#FFFF00" transform="translate(0,0)"/>
<path d="" fill="#FFFF00" transform="translate(0,0)"/>
<path d="" fill="#FFFF00" transform="translate(0,0)"/>
<path d="" fill="#FF0000" transform="translate(0,0)"/>
<path d="" fill="#FFFF00" transform="translate(0,0)"/>
<path d="" fill="#000000" transform="translate(0,0)"/>
<path d="" fill="#FFFF00" transform="translate(0,0)"/>
<path d="" fill="#FF0000" transform="translate(0,0)"/>
</svg>
